<svg width="24" height="24" viewBox="0 0 24 24" fill="none" xmlns="http://www.w3.org/2000/svg">
<path fill-rule="evenodd" clip-rule="evenodd" d="M12 21C13.1819 21 14.3522 20.7672 15.4442 20.3149C16.5361 19.8626 17.5282 19.1997 18.364 18.364C19.1997 17.5282 19.8626 16.5361 20.3149 15.4442C20.7672 14.3522 21 13.1819 21 12C21 10.8181 20.7672 9.64778 20.3149 8.55585C19.8626 7.46392 19.1997 6.47177 18.364 5.63604C17.5282 4.80031 16.5361 4.13738 15.4442 3.68508C14.3522 3.23279 13.1819 3 12 3C9.61305 3 7.32387 3.94821 5.63604 5.63604C3.94821 7.32387 3 9.61305 3 12C3 14.3869 3.94821 16.6761 5.63604 18.364C7.32387 20.0518 9.61305 21 12 21ZM12 5C12.2652 5 12.5196 5.10536 12.7071 5.29289C12.8946 5.48043 13 5.73478 13 6V9C13 9.26522 12.8946 9.51957 12.7071 9.70711C12.5196 9.89464 12.2652 10 12 10C11.7348 10 11.4804 9.89464 11.2929 9.70711C11.1054 9.51957 11 9.26522 11 9V6C11 5.73478 11.1054 5.48043 11.2929 5.29289C11.4804 5.10536 11.7348 5 12 5ZM15.536 7.05C15.7235 6.86253 15.9778 6.75721 16.243 6.75721C16.5082 6.75721 16.7625 6.86253 16.95 7.05C17.9289 8.029 18.5955 9.27628 18.8655 10.6341C19.1356 11.992 18.9969 13.3994 18.4671 14.6784C17.9373 15.9575 17.04 17.0507 15.8889 17.8198C14.7378 18.589 13.3844 18.9995 12 18.9995C10.6156 18.9995 9.26221 18.589 8.11108 17.8198C6.95995 17.0507 6.06275 15.9575 5.53291 14.6784C5.00308 13.3994 4.86441 11.992 5.13445 10.6341C5.40449 9.27628 6.0711 8.029 7.05 7.05C7.2386 6.86784 7.4912 6.76705 7.7534 6.76933C8.0156 6.7716 8.26641 6.87677 8.45182 7.06218C8.63723 7.24759 8.7424 7.4984 8.74467 7.7606C8.74695 8.0228 8.64616 8.2754 8.464 8.464C7.76487 9.16331 7.2888 10.0542 7.09598 11.0241C6.90316 11.994 7.00225 12.9992 7.38073 13.9128C7.7592 14.8263 8.40007 15.6072 9.22229 16.1565C10.0445 16.7059 11.0111 16.9991 12 16.9991C12.9889 16.9991 13.9555 16.7059 14.7777 16.1565C15.5999 15.6072 16.2408 14.8263 16.6193 13.9128C16.9977 12.9992 17.0968 11.994 16.904 11.0241C16.7112 10.0542 16.2351 9.16331 15.536 8.464C15.3485 8.27647 15.2432 8.02216 15.2432 7.757C15.2432 7.49184 15.3485 7.23753 15.536 7.05Z" fill="black"/>
</svg>
