<svg width="20" height="20" viewBox="0 0 20 20" fill="none" xmlns="http://www.w3.org/2000/svg">
<path d="M2.92996 17.0701C1.97486 16.1476 1.21303 15.0442 0.688943 13.8241C0.164853 12.6041 -0.111009 11.2919 -0.122547 9.96409C-0.134085 8.6363 0.118932 7.3195 0.62174 6.09054C1.12455 4.86158 1.86708 3.74506 2.80601 2.80613C3.74493 1.8672 4.86145 1.12467 6.09042 0.621863C7.31938 0.119054 8.63618 -0.133963 9.96397 -0.122425C11.2918 -0.110887 12.604 0.164975 13.824 0.689065C15.044 1.21316 16.1475 1.97498 17.07 2.93008C18.8915 4.8161 19.8995 7.34212 19.8767 9.96409C19.8539 12.5861 18.8022 15.0942 16.9481 16.9483C15.0941 18.8023 12.5859 19.854 9.96397 19.8768C7.342 19.8996 4.81598 18.8917 2.92996 17.0701ZM4.33996 15.6601C5.84108 17.1612 7.87705 18.0045 9.99996 18.0045C12.1229 18.0045 14.1588 17.1612 15.66 15.6601C17.1611 14.159 18.0044 12.123 18.0044 10.0001C18.0044 7.87717 17.1611 5.8412 15.66 4.34008C14.1588 2.83895 12.1229 1.99563 9.99996 1.99563C7.87705 1.99563 5.84108 2.83895 4.33996 4.34008C2.83883 5.8412 1.99551 7.87717 1.99551 10.0001C1.99551 12.123 2.83883 14.159 4.33996 15.6601ZM14.24 7.17008L11.41 10.0001L14.24 12.8301L12.83 14.2401L9.99996 11.4101L7.16996 14.2401L5.75996 12.8301L8.58996 10.0001L5.75996 7.17008L7.16996 5.76008L9.99996 8.59008L12.83 5.76008L14.24 7.17008Z" fill="black"/>
</svg>
