<svg width="200" height="200" viewBox="0 0 200 200" fill="none" xmlns="http://www.w3.org/2000/svg">
<path fill-rule="evenodd" clip-rule="evenodd" d="M118.992 17.9334C115.908 16.6667 111.992 16.6667 104.167 16.6667C96.3416 16.6667 92.4333 16.6667 89.3416 17.9334C87.3074 18.7646 85.4575 19.9899 83.8987 21.5388C82.3398 23.0877 81.1026 24.9295 80.2583 26.9584C79.4749 28.8167 79.1749 30.9917 79.0499 34.1501C78.9905 36.4376 78.3505 38.6724 77.1902 40.6447C76.0299 42.617 74.3872 44.2619 72.4166 45.4251C70.4061 46.5426 68.1461 47.1346 65.846 47.1463C63.5458 47.1579 61.28 46.5888 59.2583 45.4918C56.4416 44.0084 54.3999 43.1918 52.3833 42.9251C47.9715 42.3494 43.5105 43.535 39.9666 46.2251C37.3166 48.2417 35.3583 51.6084 31.4499 58.3334C27.5333 65.0584 25.5833 68.4167 25.1416 71.7084C24.5583 76.0917 25.7583 80.5251 28.4749 84.0334C29.7083 85.6334 31.4499 86.9751 34.1416 88.6584C38.1166 91.1334 40.6666 95.3501 40.6666 100C40.6666 104.65 38.1166 108.867 34.1499 111.333C31.4499 113.025 29.7083 114.367 28.4666 115.967C27.1297 117.702 26.1479 119.683 25.5773 121.798C25.0068 123.913 24.8587 126.12 25.1416 128.292C25.5833 131.575 27.5333 134.942 31.4499 141.667C35.3666 148.392 37.3166 151.75 39.9666 153.775C43.4999 156.467 47.9666 157.65 52.3833 157.075C54.3999 156.808 56.4416 155.992 59.2583 154.508C61.281 153.41 63.5484 152.84 65.8502 152.852C68.1519 152.863 70.4135 153.456 72.4249 154.575C76.4749 156.908 78.8749 161.2 79.0499 165.85C79.1749 169.017 79.4749 171.183 80.2583 173.042C81.9583 177.125 85.2249 180.375 89.3416 182.067C92.4249 183.333 96.3416 183.333 104.167 183.333C111.992 183.333 115.908 183.333 118.992 182.067C121.026 181.236 122.876 180.01 124.435 178.461C125.993 176.912 127.231 175.071 128.075 173.042C128.858 171.183 129.158 169.017 129.283 165.85C129.45 161.2 131.858 156.9 135.917 154.575C137.927 153.458 140.187 152.866 142.487 152.854C144.787 152.842 147.053 153.411 149.075 154.508C151.892 155.992 153.933 156.808 155.95 157.075C160.367 157.658 164.833 156.467 168.367 153.775C171.017 151.758 172.975 148.392 176.883 141.667C180.8 134.942 182.75 131.583 183.192 128.292C183.473 126.119 183.324 123.912 182.752 121.797C182.18 119.683 181.197 117.701 179.858 115.967C178.625 114.367 176.883 113.025 174.192 111.342C170.217 108.867 167.667 104.65 167.667 100C167.667 95.3501 170.217 91.1334 174.183 88.6668C176.883 86.9751 178.625 85.6334 179.867 84.0334C181.204 82.2983 182.185 80.3167 182.756 78.2019C183.326 76.0871 183.474 73.8805 183.192 71.7084C182.75 68.4251 180.8 65.0584 176.883 58.3334C172.967 51.6084 171.017 48.2501 168.367 46.2251C164.823 43.535 160.362 42.3494 155.95 42.9251C153.933 43.1918 151.892 44.0084 149.075 45.4918C147.052 46.5903 144.785 47.1602 142.483 47.1486C140.181 47.1369 137.92 46.5441 135.908 45.4251C133.939 44.2609 132.298 42.6155 131.139 40.6433C129.981 38.6711 129.342 36.4368 129.283 34.1501C129.158 30.9834 128.858 28.8167 128.075 26.9584C127.231 24.9295 125.993 23.0877 124.435 21.5388C122.876 19.9899 121.026 18.7646 118.992 17.9334ZM104.167 125C118.083 125 129.358 113.808 129.358 100C129.358 86.1918 118.075 75.0001 104.167 75.0001C90.2583 75.0001 78.975 86.1918 78.975 100C78.975 113.808 90.2583 125 104.167 125Z" fill="black"/>
</svg>
