<svg width="16" height="16" viewBox="0 0 16 16" fill="none" xmlns="http://www.w3.org/2000/svg">
<g clip-path="url(#clip0_2048_7)">
<path d="M5 8.25C5 8.05109 5.07902 7.86032 5.21967 7.71967C5.36032 7.57902 5.55109 7.5 5.75 7.5H9.75C9.94891 7.5 10.1397 7.57902 10.2803 7.71967C10.421 7.86032 10.5 8.05109 10.5 8.25C10.5 8.44891 10.421 8.63968 10.2803 8.78033C10.1397 8.92098 9.94891 9 9.75 9H5.75C5.55109 9 5.36032 8.92098 5.21967 8.78033C5.07902 8.63968 5 8.44891 5 8.25ZM4 10.5C3.80109 10.5 3.61032 10.579 3.46967 10.7197C3.32902 10.8603 3.25 11.0511 3.25 11.25C3.25 11.4489 3.32902 11.6397 3.46967 11.7803C3.61032 11.921 3.80109 12 4 12H8C8.19891 12 8.38968 11.921 8.53033 11.7803C8.67098 11.6397 8.75 11.4489 8.75 11.25C8.75 11.0511 8.67098 10.8603 8.53033 10.7197C8.38968 10.579 8.19891 10.5 8 10.5H4Z" fill="black"/>
<path d="M13 -0.00488281C14.654 -0.00488281 16 1.32312 16 2.99512C16 3.97712 15.662 4.92812 15.217 5.81312C14.774 6.69212 14.189 7.57112 13.635 8.40112L13.624 8.41812C13.056 9.27112 12.52 10.0771 12.123 10.8641C11.725 11.6531 11.5 12.3581 11.5 13.0001C11.5001 13.2593 11.5674 13.514 11.6952 13.7394C11.823 13.9648 12.007 14.1533 12.2293 14.2864C12.4516 14.4196 12.7047 14.4928 12.9637 14.4991C13.2228 14.5054 13.4791 14.4444 13.7076 14.3222C13.9361 14.2 14.129 14.0206 14.2676 13.8017C14.4061 13.5827 14.4856 13.3315 14.4982 13.0727C14.5109 12.8139 14.4562 12.5562 14.3397 12.3247C14.2231 12.0933 14.0485 11.896 13.833 11.7521C13.6741 11.6389 13.5656 11.4682 13.5305 11.2763C13.4954 11.0843 13.5365 10.8863 13.645 10.7242C13.7535 10.562 13.921 10.4485 14.1118 10.4078C14.3026 10.3671 14.5018 10.4024 14.667 10.5061C15.202 10.8638 15.6078 11.384 15.8245 11.9899C16.0412 12.5958 16.0573 13.2554 15.8705 13.8712C15.6836 14.487 15.3037 15.0264 14.7868 15.4097C14.27 15.7931 13.6435 16 13 16.0001H3.00003C2.20438 16.0001 1.44131 15.684 0.878706 15.1214C0.316097 14.5588 2.60252e-05 13.7958 2.60252e-05 13.0001C2.60252e-05 11.4181 0.891026 9.86512 1.77703 8.49412C1.98703 8.17212 2.19469 7.85678 2.40003 7.54812C2.87303 6.83912 3.32303 6.16212 3.68703 5.50012H2.51003C1.93403 5.50012 1.12903 5.36712 0.603026 4.71712C0.206811 4.23131 -0.00656161 3.62198 2.60252e-05 2.99512C2.60252e-05 2.19947 0.316097 1.43641 0.878706 0.873797C1.44131 0.311188 2.20438 -0.00488281 3.00003 -0.00488281H13ZM13 1.49512C12.6022 1.49512 12.2207 1.65315 11.9394 1.93446C11.6581 2.21576 11.5 2.59729 11.5 2.99512C11.5 3.47112 11.723 3.82912 12.167 4.12712C12.3006 4.21662 12.4018 4.34667 12.4558 4.49808C12.5099 4.64949 12.5138 4.81425 12.4671 4.96807C12.4204 5.12189 12.3255 5.25663 12.1964 5.35243C12.0673 5.44822 11.9108 5.49999 11.75 5.50012H5.36803C4.90103 6.50312 4.22703 7.51512 3.59503 8.46312C3.40303 8.75212 3.21403 9.03412 3.03703 9.30812C2.13003 10.7111 1.50003 11.9161 1.50003 13.0001C1.50003 13.3979 1.65806 13.7795 1.93937 14.0608C2.22067 14.3421 2.6022 14.5001 3.00003 14.5001H10.401C10.138 14.044 9.99974 13.5266 10 13.0001C10 12.0211 10.338 11.0721 10.784 10.1881C11.225 9.31412 11.807 8.44012 12.359 7.61212L12.376 7.58612C12.944 6.73312 13.479 5.92812 13.877 5.13812C14.275 4.34812 14.5 3.64112 14.5 2.99512C14.5 2.15712 13.831 1.49512 13 1.49512ZM3.00003 1.49512C2.6022 1.49512 2.22067 1.65315 1.93937 1.93446C1.65806 2.21576 1.50003 2.59729 1.50003 2.99512C1.50003 3.31612 1.60003 3.56412 1.77003 3.77312C1.86703 3.89312 2.09503 4.00012 2.51003 4.00012H10.184C10.0593 3.67988 9.99684 3.33877 10 2.99512C10 2.44912 10.146 1.93612 10.401 1.49512H3.00003Z" fill="black"/>
</g>
<defs>
<clipPath id="clip0_2048_7">
<rect width="16" height="16" fill="white"/>
</clipPath>
</defs>
</svg>
