<svg width="200" height="200" viewBox="0 0 200 200" fill="none" xmlns="http://www.w3.org/2000/svg">
<g clip-path="url(#clip0_2044_41)">
<path fill-rule="evenodd" clip-rule="evenodd" d="M100 181.25C114.264 181.271 128.279 177.519 140.625 170.375V143.75C140.625 136.291 137.662 129.137 132.387 123.863C127.113 118.588 119.959 115.625 112.5 115.625H87.5C80.0408 115.625 72.8871 118.588 67.6126 123.863C62.3382 129.137 59.375 136.291 59.375 143.75V170.375C71.7207 177.519 85.7363 181.271 100 181.25ZM159.375 143.75V155.463C170.184 143.891 177.376 129.414 180.068 113.81C182.759 98.2066 180.833 82.1564 174.525 67.6328C168.217 53.1092 157.803 40.7452 144.563 32.0605C131.323 23.3759 115.834 18.7493 100 18.7493C84.1658 18.7493 68.6767 23.3759 55.4366 32.0605C42.1966 40.7452 31.7826 53.1092 25.475 67.6328C19.1674 82.1564 17.2409 98.2066 19.9324 113.81C22.624 129.414 29.8162 143.891 40.625 155.463V143.75C40.6213 134.085 43.6051 124.655 49.168 116.752C54.7308 108.848 62.6007 102.858 71.7 99.6C66.9798 94.1708 63.921 87.4984 62.8883 80.3787C61.8557 73.259 62.8928 65.9926 65.8759 59.4461C68.8591 52.8995 73.6624 47.3493 79.7129 43.4573C85.7635 39.5653 92.8058 37.4959 100 37.4959C107.194 37.4959 114.237 39.5653 120.287 43.4573C126.338 47.3493 131.141 52.8995 134.124 59.4461C137.107 65.9926 138.144 73.259 137.112 80.3787C136.079 87.4984 133.02 94.1708 128.3 99.6C137.399 102.858 145.269 108.848 150.832 116.752C156.395 124.655 159.379 134.085 159.375 143.75ZM100 200C126.522 200 151.957 189.464 170.711 170.711C189.464 151.957 200 126.522 200 100C200 73.4784 189.464 48.043 170.711 29.2893C151.957 10.5357 126.522 0 100 0C73.4784 0 48.043 10.5357 29.2893 29.2893C10.5357 48.043 0 73.4784 0 100C0 126.522 10.5357 151.957 29.2893 170.711C48.043 189.464 73.4784 200 100 200ZM118.75 75C118.75 79.9728 116.775 84.7419 113.258 88.2583C109.742 91.7746 104.973 93.75 100 93.75C95.0272 93.75 90.2581 91.7746 86.7417 88.2583C83.2254 84.7419 81.25 79.9728 81.25 75C81.25 70.0272 83.2254 65.2581 86.7417 61.7417C90.2581 58.2254 95.0272 56.25 100 56.25C104.973 56.25 109.742 58.2254 113.258 61.7417C116.775 65.2581 118.75 70.0272 118.75 75Z" fill="black"/>
</g>
<defs>
<clipPath id="clip0_2044_41">
<rect width="200" height="200" fill="white"/>
</clipPath>
</defs>
</svg>
