<svg width="200" height="200" viewBox="0 0 200 200" fill="none" xmlns="http://www.w3.org/2000/svg">
<g clip-path="url(#clip0_2044_40)">
<path d="M125.733 53.4333C122.862 49.7274 118.956 46.9575 114.508 45.475L103.025 41.7417C102.143 41.4278 101.38 40.8489 100.841 40.0842C100.301 39.3195 100.012 38.4067 100.012 37.4708C100.012 36.535 100.301 35.6221 100.841 34.8575C101.38 34.0928 102.143 33.5138 103.025 33.2L114.508 29.4667C117.906 28.2932 120.992 26.3611 123.532 23.8169C126.072 21.2727 127.999 18.1834 129.167 14.7833L129.258 14.5L132.992 3.025C133.302 2.13762 133.881 1.36867 134.647 0.824606C135.414 0.280543 136.331 -0.0117187 137.271 -0.0117187C138.211 -0.0117188 139.128 0.280543 139.894 0.824606C140.661 1.36867 141.24 2.13762 141.55 3.025L145.275 14.5C146.439 17.9879 148.401 21.1564 151.003 23.7543C153.605 26.3522 156.777 28.3081 160.267 29.4667L171.742 33.2L171.975 33.2583C172.857 33.5722 173.62 34.1511 174.159 34.9158C174.698 35.6805 174.988 36.5934 174.988 37.5292C174.988 38.465 174.698 39.3779 174.159 40.1425C173.62 40.9072 172.857 41.4862 171.975 41.8L160.492 45.5333C157.003 46.693 153.833 48.6494 151.232 51.2472C148.632 53.8451 146.672 57.013 145.508 60.5L141.775 71.975L141.667 72.2583C141.307 73.0969 140.702 73.8072 139.931 74.2965C139.161 74.7857 138.261 75.0311 137.349 75.0005C136.437 74.9699 135.555 74.6647 134.82 74.1249C134.084 73.5851 133.528 72.8358 133.225 71.975L129.492 60.5C128.658 57.9461 127.381 55.5554 125.733 53.4333ZM189.867 85.1083L183.483 83.0417C181.546 82.3941 179.787 81.3048 178.343 79.86C176.9 78.4151 175.812 76.6543 175.167 74.7167L173.083 68.35C172.911 67.8578 172.59 67.4313 172.164 67.1296C171.739 66.8279 171.23 66.6658 170.708 66.6658C170.187 66.6658 169.678 66.8279 169.253 67.1296C168.827 67.4313 168.506 67.8578 168.333 68.35L166.267 74.7167C165.633 76.6418 164.563 78.3947 163.141 79.8387C161.718 81.2826 159.982 82.3788 158.067 83.0417L151.692 85.1083C151.199 85.2809 150.773 85.6021 150.471 86.0276C150.17 86.453 150.007 86.9617 150.007 87.4833C150.007 88.0049 150.17 88.5136 150.471 88.9391C150.773 89.3646 151.199 89.6858 151.692 89.8583L158.067 91.9333C160.009 92.5812 161.774 93.6733 163.221 95.1228C164.667 96.5723 165.756 98.3393 166.4 100.283L168.467 106.65C168.639 107.142 168.96 107.569 169.386 107.87C169.811 108.172 170.32 108.334 170.842 108.334C171.363 108.334 171.872 108.172 172.297 107.87C172.723 107.569 173.044 107.142 173.217 106.65L175.292 100.283C175.938 98.3449 177.027 96.5834 178.472 95.1385C179.917 93.6936 181.678 92.6048 183.617 91.9583L189.992 89.8917C190.484 89.7191 190.91 89.3979 191.212 88.9724C191.514 88.547 191.676 88.0383 191.676 87.5167C191.676 86.9951 191.514 86.4864 191.212 86.0609C190.91 85.6354 190.484 85.3142 189.992 85.1417L189.867 85.1083ZM97.1917 26.6667C87.6426 24.3322 77.6584 24.4488 68.1664 27.0057C58.6745 29.5626 49.9826 34.4767 42.8982 41.2918C35.8137 48.1069 30.5664 56.6017 27.6436 65.9875C24.7209 75.3732 24.2174 85.3454 26.1801 94.9778C28.1427 104.61 32.5078 113.59 38.8699 121.084C45.232 128.578 53.3847 134.343 62.5709 137.842C71.7571 141.342 81.6788 142.464 91.4144 141.103C101.15 139.742 110.384 135.943 118.258 130.058L160.775 172.567C162.347 174.085 164.452 174.925 166.637 174.906C168.822 174.887 170.912 174.01 172.457 172.465C174.002 170.92 174.878 168.83 174.897 166.645C174.916 164.46 174.076 162.355 172.558 160.783L130.058 118.283C137.616 108.201 141.691 95.9341 141.667 83.3333V82.9333C140.229 83.4771 138.704 83.7512 137.167 83.7417C131.675 83.725 125.942 80.1833 124.167 74.9917V74.9667C124.717 77.6778 124.994 80.4667 125 83.3333C124.997 91.9852 122.301 100.422 117.286 107.472C112.272 114.522 105.186 119.836 97.0142 122.677C88.842 125.518 79.9882 125.744 71.6816 123.325C63.3749 120.905 56.0274 115.96 50.6588 109.175C45.2901 102.391 42.1666 94.103 41.7218 85.4626C41.2769 76.8222 43.5328 68.2576 48.1763 60.9575C52.8197 53.6573 59.6205 47.9837 67.6348 44.724C75.6491 41.4643 84.4793 40.7802 92.9 42.7667C92.0993 41.0371 91.6787 39.1559 91.6666 37.25C91.675 32.9417 93.8 29.0583 97.1917 26.6667Z" fill="black"/>
</g>
<defs>
<clipPath id="clip0_2044_40">
<rect width="200" height="200" fill="white"/>
</clipPath>
</defs>
</svg>
